<svg version="1.1" viewBox="0.0 0.0 960.0 720.0" fill="none" stroke="none" stroke-linecap="square" stroke-miterlimit="10" xmlns:xlink="http://www.w3.org/1999/xlink" xmlns="http://www.w3.org/2000/svg"><clipPath id="p.0"><path d="m0 0l960.0 0l0 720.0l-960.0 0l0 -720.0z" clip-rule="nonzero"/></clipPath><g clip-path="url(#p.0)"><path fill="#000000" fill-opacity="0.0" d="m0 0l960.0 0l0 720.0l-960.0 0z" fill-rule="evenodd"/><g filter="url(#shadowFilter-p.1)"><use xlink:href="#p.1" transform="matrix(1.0 0.0 0.0 1.0 0.0 2.0)"/></g><defs><filter id="shadowFilter-p.1" filterUnits="userSpaceOnUse"><feGaussianBlur in="SourceAlpha" stdDeviation="2.0" result="blur"/><feComponentTransfer in="blur" color-interpolation-filters="sRGB"><feFuncR type="linear" slope="0" intercept="0.9529412"/><feFuncG type="linear" slope="0" intercept="0.9529412"/><feFuncB type="linear" slope="0" intercept="0.9529412"/><feFuncA type="linear" slope="0.5" intercept="0"/></feComponentTransfer></filter></defs><g id="p.1"><path fill="#000000" fill-opacity="0.0" d="m480.0 92.031494l227.76367 113.8819l0 308.17322l-227.76367 113.8819l-227.76367 -113.8819l0 -308.17322z" fill-rule="evenodd"/><path stroke="#9fc5e8" stroke-width="24.0" stroke-linejoin="round" stroke-linecap="butt" d="m480.0 92.031494l227.76367 113.8819l0 308.17322l-227.76367 113.8819l-227.76367 -113.8819l0 -308.17322z" fill-rule="evenodd"/></g><path fill="#000000" fill-opacity="0.0" d="m252.23633 205.91339l455.5276 308.18896" fill-rule="evenodd"/><path stroke="#000000" stroke-width="24.0" stroke-linejoin="round" stroke-linecap="butt" d="m252.23633 205.91339l455.5276 308.18896" fill-rule="evenodd"/><path fill="#000000" fill-opacity="0.0" d="m707.7637 205.91339l-227.74802 -113.88977" fill-rule="evenodd"/><path stroke="#3c78d8" stroke-width="24.0" stroke-linejoin="round" stroke-linecap="butt" d="m707.7637 205.91339l-227.74802 -113.88977" fill-rule="evenodd"/><path fill="#000000" fill-opacity="0.0" d="m480.0 92.031494l-227.74803 113.88977" fill-rule="evenodd"/><path stroke="#3c78d8" stroke-width="24.0" stroke-linejoin="round" stroke-linecap="butt" d="m480.0 92.031494l-227.74803 113.88977" fill-rule="evenodd"/><path fill="#000000" fill-opacity="0.0" d="m252.23633 205.91339l455.5276 308.18896" fill-rule="evenodd"/><path stroke="#3c78d8" stroke-width="24.0" stroke-linejoin="round" stroke-linecap="butt" d="m252.23633 205.91339l455.5276 308.18896" fill-rule="evenodd"/><path fill="#000000" fill-opacity="0.0" d="m707.7637 514.0866l-227.74802 113.88977" fill-rule="evenodd"/><path stroke="#3c78d8" stroke-width="24.0" stroke-linejoin="round" stroke-linecap="butt" d="m707.7637 514.0866l-227.74802 113.88977" fill-rule="evenodd"/><path fill="#000000" fill-opacity="0.0" d="m480.0 627.9685l-227.74803 -113.88977" fill-rule="evenodd"/><path stroke="#3c78d8" stroke-width="24.0" stroke-linejoin="round" stroke-linecap="butt" d="m480.0 627.9685l-227.74803 -113.88977" fill-rule="evenodd"/><path fill="#000000" fill-opacity="0.0" d="m249.01796 207.8167l0 0c-0.100250244 0.12112427 0.6713562 0.758255 2.1450806 1.7712555c1.4737091 1.0129852 3.5287933 2.3188477 5.7131805 3.63031l0 0c4.5487366 2.7309875 8.405426 4.7404175 8.614166 4.4881897l0 0c0.20874023 -0.25221252 -3.3095093 -2.6705933 -7.858246 -5.4015656l0 0c-4.548752 -2.7309875 -8.405457 -4.7404175 -8.6141815 -4.4881897z" fill-rule="evenodd"/><path stroke="#3c78d8" stroke-width="24.0" stroke-linejoin="round" stroke-linecap="butt" d="m249.01796 207.8167l0 0c-0.100250244 0.12112427 0.6713562 0.758255 2.1450806 1.7712555c1.4737091 1.0129852 3.5287933 2.3188477 5.7131805 3.63031l0 0c4.5487366 2.7309875 8.405426 4.7404175 8.614166 4.4881897l0 0c0.20874023 -0.25221252 -3.3095093 -2.6705933 -7.858246 -5.4015656l0 0c-4.548752 -2.7309875 -8.405457 -4.7404175 -8.6141815 -4.4881897z" fill-rule="evenodd"/><path fill="#000000" fill-opacity="0.0" d="m253.62898 512.9031l0 0c-0.050125122 0.11694336 0.8143463 0.7716675 2.403244 1.8200684c1.5888977 1.0484619 3.7720337 2.4047241 6.0691833 3.7705078l0 0c4.7835693 2.8440552 8.746033 4.9522095 8.850403 4.708679l0 0c0.10437012 -0.24353027 -3.6888733 -2.746521 -8.472443 -5.590576l0 0c-4.7835693 -2.8440552 -8.746017 -4.9522095 -8.850388 -4.708679z" fill-rule="evenodd"/><path stroke="#3c78d8" stroke-width="24.0" stroke-linejoin="round" stroke-linecap="butt" d="m253.62898 512.9031l0 0c-0.050125122 0.11694336 0.8143463 0.7716675 2.403244 1.8200684c1.5888977 1.0484619 3.7720337 2.4047241 6.0691833 3.7705078l0 0c4.7835693 2.8440552 8.746033 4.9522095 8.850403 4.708679l0 0c0.10437012 -0.24353027 -3.6888733 -2.746521 -8.472443 -5.590576l0 0c-4.7835693 -2.8440552 -8.746017 -4.9522095 -8.850388 -4.708679z" fill-rule="evenodd"/><path fill="#000000" fill-opacity="0.0" d="m691.51495 504.3622l0 0c-0.083496094 0.096069336 0.73394775 0.7539673 2.272644 1.8289795c1.5386963 1.0750122 3.6725464 2.479065 5.932068 3.9032898l0 0c4.7053223 2.9658203 8.660706 5.207947 8.834656 5.0078735l0 0c0.1739502 -0.2000122 -3.4994507 -2.7664795 -8.204712 -5.7322693l0 0c-4.7053223 -2.9658203 -8.660706 -5.2079163 -8.834656 -5.0078735z" fill-rule="evenodd"/><path stroke="#3c78d8" stroke-width="24.0" stroke-linejoin="round" stroke-linecap="butt" d="m691.51495 504.3622l0 0c-0.083496094 0.096069336 0.73394775 0.7539673 2.272644 1.8289795c1.5386963 1.0750122 3.6725464 2.479065 5.932068 3.9032898l0 0c4.7053223 2.9658203 8.660706 5.207947 8.834656 5.0078735l0 0c0.1739502 -0.2000122 -3.4994507 -2.7664795 -8.204712 -5.7322693l0 0c-4.7053223 -2.9658203 -8.660706 -5.2079163 -8.834656 -5.0078735z" fill-rule="evenodd"/><path fill="#000000" fill-opacity="0.0" d="m692.3805 197.2252l0 0c-0.05847168 0.11276245 0.8294678 0.7053833 2.468567 1.6475067c1.6390991 0.94210815 3.8950806 2.1565247 6.2715454 3.376114l0 0c4.9488525 2.539627 9.059387 4.4080505 9.181152 4.173218l0 0c0.12176514 -0.23483276 -3.7913818 -2.4839783 -8.740173 -5.0236206l0 0c-4.9488525 -2.5396423 -9.059326 -4.4080505 -9.181091 -4.173218z" fill-rule="evenodd"/><path stroke="#3c78d8" stroke-width="24.0" stroke-linejoin="round" stroke-linecap="butt" d="m692.3805 197.2252l0 0c-0.05847168 0.11276245 0.8294678 0.7053833 2.468567 1.6475067c1.6390991 0.94210815 3.8950806 2.1565247 6.2715454 3.376114l0 0c4.9488525 2.539627 9.059387 4.4080505 9.181152 4.173218l0 0c0.12176514 -0.23483276 -3.7913818 -2.4839783 -8.740173 -5.0236206l0 0c-4.9488525 -2.5396423 -9.059326 -4.4080505 -9.181091 -4.173218z" fill-rule="evenodd"/><path fill="#000000" fill-opacity="0.0" d="m483.9473 92.45008l0 0c-0.05847168 0.11277008 0.3798828 0.4747696 1.2186279 1.0063705c0.8387451 0.53160095 2.0091858 1.1892471 3.2538147 1.82827l0 0c2.5918274 1.3307037 4.791626 2.2190857 4.913391 1.9842529l0 0c0.12176514 -0.23482513 -1.8806152 -1.5039444 -4.4724426 -2.8346405l0 0c-2.5918274 -1.3307037 -4.791626 -2.2190857 -4.913391 -1.9842529z" fill-rule="evenodd"/><path stroke="#3c78d8" stroke-width="24.0" stroke-linejoin="round" stroke-linecap="butt" d="m483.9473 92.45008l0 0c-0.05847168 0.11277008 0.3798828 0.4747696 1.2186279 1.0063705c0.8387451 0.53160095 2.0091858 1.1892471 3.2538147 1.82827l0 0c2.5918274 1.3307037 4.791626 2.2190857 4.913391 1.9842529l0 0c0.12176514 -0.23482513 -1.8806152 -1.5039444 -4.4724426 -2.8346405l0 0c-2.5918274 -1.3307037 -4.791626 -2.2190857 -4.913391 -1.9842529z" fill-rule="evenodd"/><path fill="#3c78d8" d="m470.62048 623.4652l0 0c-0.05847168 0.11273193 0.3798828 0.47473145 1.2186279 1.0063477c0.8387451 0.5316162 2.0091553 1.18927 3.2538147 1.8283081l0 0c2.5917969 1.3306885 4.7915955 2.2190552 4.9133606 1.9842529l0 0c0.12176514 -0.23486328 -1.8806152 -1.5039673 -4.4724426 -2.8346558l0 0c-2.5917969 -1.3306885 -4.7915955 -2.2191162 -4.9133606 -1.9842529z" fill-rule="evenodd"/><path stroke="#3c78d8" stroke-width="24.0" stroke-linejoin="round" stroke-linecap="butt" d="m470.62048 623.4652l0 0c-0.05847168 0.11273193 0.3798828 0.47473145 1.2186279 1.0063477c0.8387451 0.5316162 2.0091553 1.18927 3.2538147 1.8283081l0 0c2.5917969 1.3306885 4.7915955 2.2190552 4.9133606 1.9842529l0 0c0.12176514 -0.23486328 -1.8806152 -1.5039673 -4.4724426 -2.8346558l0 0c-2.5917969 -1.3306885 -4.7915955 -2.2191162 -4.9133606 -1.9842529z" fill-rule="evenodd"/><path fill="#3c78d8" d="m489.6063 621.5452l0 0c0.05847168 0.11273193 -0.3798828 0.47473145 -1.2186279 1.0063477c-0.8387451 0.5316162 -2.0091553 1.18927 -3.2538147 1.8282471l0 0c-2.5918274 1.3307495 -4.791626 2.2191162 -4.913391 1.9842529l0 0c-0.12176514 -0.23480225 1.8806152 -1.5039062 4.4724426 -2.8346558l0 0c2.5918274 -1.3306885 4.791626 -2.2190552 4.913391 -1.9841919z" fill-rule="evenodd"/><path stroke="#3c78d8" stroke-width="24.0" stroke-linejoin="round" stroke-linecap="butt" d="m489.6063 621.5452l0 0c0.05847168 0.11273193 -0.3798828 0.47473145 -1.2186279 1.0063477c-0.8387451 0.5316162 -2.0091553 1.18927 -3.2538147 1.8282471l0 0c-2.5918274 1.3307495 -4.791626 2.2191162 -4.913391 1.9842529l0 0c-0.12176514 -0.23480225 1.8806152 -1.5039062 4.4724426 -2.8346558l0 0c2.5918274 -1.3306885 4.791626 -2.2190552 4.913391 -1.9841919z" fill-rule="evenodd"/><path fill="#000000" fill-opacity="0.0" d="m691.5504 522.4584l0 0c0.10443115 0.12109375 1.0623779 -0.29699707 2.663086 -1.1622925c1.600708 -0.86535645 3.7130737 -2.1070557 5.8723755 -3.4519043l0 0c4.496521 -2.800537 7.965454 -5.2753296 7.748047 -5.527588l0 0c-0.21746826 -0.25219727 -4.0388794 1.8136597 -8.535461 4.614197l0 0c-4.496521 2.800537 -7.965454 5.2753296 -7.748047 5.527588z" fill-rule="evenodd"/><path stroke="#3c78d8" stroke-width="24.0" stroke-linejoin="round" stroke-linecap="butt" d="m691.5504 522.4584l0 0c0.10443115 0.12109375 1.0623779 -0.29699707 2.663086 -1.1622925c1.600708 -0.86535645 3.7130737 -2.1070557 5.8723755 -3.4519043l0 0c4.496521 -2.800537 7.965454 -5.2753296 7.748047 -5.527588l0 0c-0.21746826 -0.25219727 -4.0388794 1.8136597 -8.535461 4.614197l0 0c-4.496521 2.800537 -7.965454 5.2753296 -7.748047 5.527588z" fill-rule="evenodd"/><path fill="#000000" fill-opacity="0.0" d="m480.0063 92.45008l0 0c0.05847168 0.11277008 -0.3798523 0.4747696 -1.2185974 1.0063705c-0.8387451 0.53160095 -2.0091858 1.1892471 -3.2538452 1.82827l0 0c-2.5917969 1.3307037 -4.7915955 2.2190857 -4.9133606 1.9842529l0 0c-0.12176514 -0.23482513 1.8806152 -1.5039444 4.4724426 -2.8346405l0 0c2.5917969 -1.3307037 4.7915955 -2.2190857 4.9133606 -1.9842529z" fill-rule="evenodd"/><path stroke="#3c78d8" stroke-width="24.0" stroke-linejoin="round" stroke-linecap="butt" d="m480.0063 92.45008l0 0c0.05847168 0.11277008 -0.3798523 0.4747696 -1.2185974 1.0063705c-0.8387451 0.53160095 -2.0091858 1.1892471 -3.2538452 1.82827l0 0c-2.5917969 1.3307037 -4.7915955 2.2190857 -4.9133606 1.9842529l0 0c-0.12176514 -0.23482513 1.8806152 -1.5039444 4.4724426 -2.8346405l0 0c2.5917969 -1.3307037 4.7915955 -2.2190857 4.9133606 -1.9842529z" fill-rule="evenodd"/></g></svg>